<svg width="512" height="512" viewBox="0 0 512 512" fill="none" xmlns="http://www.w3.org/2000/svg">
<rect width="512" height="512" fill="white"/>
<g clip-path="url(#clip0_41_100)">
<path d="M129.232 368.489V430.318H124.952V401.229H87.6614V430.318H83.4089V368.489H87.6887V397.225H124.98V368.489H129.259H129.232Z" fill="#91ACBE"/>
<path d="M140.926 430.29L167.067 365.765H167.422L193.564 430.29H188.766L166.031 372.574L169.003 370.913L145.205 430.29H140.926ZM153.547 405.831H180.997L182.224 409.835H152.511L153.547 405.831Z" fill="#91ACBE"/>
<path d="M208.638 409.4C208.638 412.995 209.374 416.1 210.874 418.715C212.346 421.33 214.363 423.345 216.925 424.762C219.488 426.178 222.377 426.886 225.648 426.886C228.919 426.886 231.918 426.178 234.48 424.762C237.07 423.345 239.087 421.33 240.587 418.715C242.059 416.1 242.822 412.995 242.822 409.4V368.489H246.992V409.672C246.992 414.139 246.038 417.98 244.158 421.166C242.277 424.353 239.714 426.804 236.498 428.493C233.281 430.182 229.655 431.026 225.648 431.026C221.641 431.026 218.016 430.182 214.799 428.493C211.582 426.804 209.02 424.38 207.166 421.166C205.313 417.98 204.386 414.139 204.386 409.672V368.489H208.666V409.4H208.638Z" fill="#91ACBE"/>
<path d="M294.724 375.435C292.925 374.564 290.717 373.747 288.1 372.984C285.483 372.221 282.866 371.84 280.249 371.84C276.187 371.84 272.916 372.848 270.49 374.891C268.037 376.933 266.837 379.467 266.837 382.544C266.837 384.86 267.546 386.793 268.936 388.346C270.327 389.871 272.153 391.179 274.416 392.268C276.678 393.33 279.077 394.365 281.639 395.346C283.684 396.109 285.701 396.953 287.691 397.879C289.708 398.805 291.507 399.949 293.143 401.284C294.778 402.618 296.06 404.28 297.014 406.241C297.968 408.202 298.458 410.653 298.458 413.568C298.458 417 297.641 420.023 296.005 422.665C294.369 425.307 292.107 427.35 289.217 428.793C286.301 430.237 282.948 430.972 279.104 430.972C276.024 430.972 273.216 430.591 270.708 429.828C268.173 429.066 265.965 428.194 264.084 427.159C262.203 426.151 260.704 425.28 259.586 424.599L261.576 421.112C262.858 422.039 264.411 422.965 266.238 423.891C268.064 424.817 270.054 425.607 272.208 426.233C274.361 426.86 276.515 427.186 278.668 427.186C281.176 427.186 283.602 426.696 285.946 425.716C288.291 424.735 290.253 423.237 291.78 421.221C293.306 419.206 294.097 416.673 294.097 413.595C294.097 410.517 293.361 408.229 291.916 406.404C290.471 404.579 288.618 403.081 286.328 401.91C284.065 400.739 281.639 399.704 279.104 398.778C277.142 398.015 275.152 397.225 273.189 396.381C271.226 395.537 269.4 394.529 267.792 393.33C266.156 392.132 264.875 390.716 263.921 389.027C262.967 387.338 262.476 385.323 262.476 382.926C262.476 379.957 263.239 377.369 264.738 375.163C266.238 372.957 268.309 371.241 270.872 369.988C273.461 368.735 276.406 368.081 279.704 368.027C282.621 368.027 285.565 368.408 288.563 369.171C291.562 369.933 294.151 370.887 296.359 372.058L294.697 375.354L294.724 375.435Z" fill="#91ACBE"/>
<path d="M168.894 165.626C168.894 183.767 154.174 198.502 135.992 198.502C117.81 198.502 103.09 183.794 103.09 165.626C103.09 147.459 117.81 132.751 135.992 132.751C154.174 132.751 168.894 147.459 168.894 165.626ZM189.012 165.626C189.012 136.374 165.269 112.677 136.02 112.677C123.589 112.677 112.14 116.981 103.117 124.144V91.0506C103.117 85.4942 98.6197 81 93.0587 81C87.4978 81 83 85.4942 83 91.0506V157.591C83 158.409 83.109 159.226 83.2999 159.988C83.109 161.84 83 163.72 83 165.626C83 194.852 106.743 218.576 136.02 218.576C165.296 218.576 189.012 194.852 189.012 165.599" fill="#91ACBE"/>
<path d="M280.385 165.626C280.385 183.766 265.665 198.502 247.483 198.502C229.301 198.502 214.581 183.793 214.581 165.626C214.581 147.459 229.301 132.751 247.483 132.751C265.665 132.751 280.385 147.459 280.385 165.626ZM300.503 165.626C300.503 136.373 276.76 112.677 247.51 112.677C218.261 112.677 194.518 136.4 194.518 165.626C194.518 194.852 218.261 218.603 247.51 218.603C276.76 218.603 300.503 194.879 300.503 165.626Z" fill="#91ACBE"/>
<path d="M280.385 297.399C280.385 315.539 265.665 330.275 247.483 330.275C229.301 330.275 214.581 315.566 214.581 297.399C214.581 279.232 229.301 264.551 247.483 264.551C265.665 264.551 280.385 279.259 280.385 297.399ZM300.503 297.399C300.503 268.146 276.76 244.45 247.51 244.45C218.261 244.45 194.518 268.173 194.518 297.399C194.518 326.625 218.261 350.376 247.51 350.376C276.76 350.376 300.503 326.652 300.503 297.399Z" fill="#91ACBE"/>
<path d="M189.012 297.399C189.012 268.146 165.269 244.45 136.02 244.45C106.77 244.45 83 268.173 83 297.399C83 314.232 90.8507 329.24 103.09 338.936V296.882H103.117C103.39 278.987 118.028 264.551 135.992 264.551C153.956 264.551 168.894 279.259 168.894 297.426C168.894 298.107 168.894 298.788 168.84 299.442V339.018C181.134 329.321 189.012 314.286 189.012 297.426" fill="#91ACBE"/>
<path d="M93.0587 212.8C87.4978 212.8 83 217.294 83 222.85V340.053C83 345.609 87.4978 350.103 93.0587 350.103C98.6197 350.103 103.117 345.609 103.117 340.053V222.85C103.117 217.294 98.6197 212.8 93.0587 212.8Z" fill="#91ACBE"/>
<path d="M168.976 296.882V340.189C168.976 345.664 173.419 350.076 178.871 350.076C184.323 350.076 188.766 345.637 188.766 340.189V296.882H168.948H168.976Z" fill="#91ACBE"/>
<path d="M319.884 212.8C314.323 212.8 309.825 217.294 309.825 222.85V340.053C309.825 345.609 314.323 350.103 319.884 350.103C325.445 350.103 329.943 345.609 329.943 340.053V222.85C329.943 217.294 325.445 212.8 319.884 212.8Z" fill="#A2A483"/>
<path d="M339.129 340.053C339.129 345.609 343.627 350.104 349.188 350.104H419.245C424.806 350.104 429.303 345.609 429.303 340.053C429.303 334.497 424.806 330.002 419.245 330.002H349.188C343.627 330.002 339.129 334.497 339.129 340.053Z" fill="#A2A483"/>
<path d="M339.129 254.5C339.129 260.057 343.627 264.551 349.188 264.551H419.245C424.806 264.551 429.303 260.057 429.303 254.5C429.303 248.944 424.806 244.45 419.245 244.45H349.188C343.627 244.45 339.129 248.944 339.129 254.5Z" fill="#A2A483"/>
<path d="M426.469 247.938C423.17 243.988 417.773 243.961 414.42 247.856L341.828 332.591C338.475 336.486 338.448 342.86 341.773 346.782C345.072 350.732 350.469 350.759 353.822 346.864L426.414 262.128C429.767 258.233 429.794 251.86 426.469 247.938Z" fill="#A2A483"/>
</g>
<defs>
<clipPath id="clip0_41_100">
<rect width="346.277" height="350" fill="white" transform="translate(83 81)"/>
</clipPath>
</defs>
</svg>
