<svg width="512" height="512" viewBox="0 0 512 512" fill="none" xmlns="http://www.w3.org/2000/svg">
  <!--
    BoHolz Haus logo. Colors mirror the design system tokens:
      light mode: bg = clr-surface-primary, fg = clr-content-primary
      dark mode:  bg = clr-content-primary, fg = clr-surface-primary
    (The leading double-dash is omitted because XML comments disallow it.)
    Update the two color values below if the tokens in
    src/ui/style/design-system.css change.
  -->
  <style>
    :root {
      --bg: #fcfcfc;
      --fg: #1a1a1a;
    }
    @media (prefers-color-scheme: dark) {
      :root {
        --bg: #1a1a1a;
        --fg: #fcfcfc;
      }
    }
    .bg { fill: var(--bg); }
    .fg { fill: var(--fg); }
  </style>

  <rect class="bg" width="512" height="512" />

  <svg x="82.5" y="81" width="347" height="350" viewBox="0 0 347 350" fill="none" xmlns="http://www.w3.org/2000/svg">
    <path class="fg"
      d="M46.232 287.489V349.318H41.9523V320.229H4.66141V349.318H0.408936V287.489H4.68867V316.225H41.9796V287.489H46.2593H46.232Z" />
    <path class="fg"
      d="M57.9255 349.29L84.0673 284.765H84.4217L110.564 349.29H105.766L83.0315 291.574L86.0028 289.913L62.2053 349.29H57.9255ZM70.5467 324.831H97.9969L99.2236 328.835H69.5108L70.5467 324.831Z" />
    <path class="fg"
      d="M125.638 328.4C125.638 331.995 126.374 335.1 127.874 337.715C129.346 340.33 131.363 342.345 133.925 343.762C136.488 345.178 139.377 345.886 142.648 345.886C145.919 345.886 148.918 345.178 151.48 343.762C154.07 342.345 156.087 340.33 157.587 337.715C159.059 335.1 159.822 331.995 159.822 328.4V287.489H163.992V328.672C163.992 333.139 163.038 336.98 161.158 340.166C159.277 343.353 156.714 345.804 153.498 347.493C150.281 349.182 146.655 350.026 142.648 350.026C138.641 350.026 135.016 349.182 131.799 347.493C128.582 345.804 126.02 343.38 124.166 340.166C122.313 336.98 121.386 333.139 121.386 328.672V287.489H125.666V328.4H125.638Z" />
    <path class="fg"
      d="M211.724 294.435C209.925 293.564 207.717 292.747 205.1 291.984C202.483 291.221 199.866 290.84 197.249 290.84C193.187 290.84 189.916 291.848 187.49 293.891C185.037 295.933 183.837 298.467 183.837 301.544C183.837 303.86 184.546 305.793 185.936 307.346C187.327 308.871 189.153 310.179 191.416 311.268C193.678 312.33 196.077 313.365 198.639 314.346C200.684 315.109 202.701 315.953 204.691 316.879C206.708 317.805 208.507 318.949 210.143 320.284C211.778 321.618 213.06 323.28 214.014 325.241C214.968 327.202 215.458 329.653 215.458 332.568C215.458 336 214.641 339.023 213.005 341.665C211.369 344.307 209.107 346.35 206.217 347.793C203.301 349.237 199.948 349.972 196.104 349.972C193.024 349.972 190.216 349.591 187.708 348.828C185.173 348.066 182.965 347.194 181.084 346.159C179.203 345.151 177.704 344.28 176.586 343.599L178.576 340.112C179.858 341.039 181.411 341.965 183.238 342.891C185.064 343.817 187.054 344.607 189.208 345.233C191.361 345.86 193.515 346.186 195.668 346.186C198.176 346.186 200.602 345.696 202.946 344.716C205.291 343.735 207.253 342.237 208.78 340.221C210.306 338.206 211.097 335.673 211.097 332.595C211.097 329.517 210.361 327.229 208.916 325.404C207.471 323.579 205.618 322.081 203.328 320.91C201.065 319.739 198.639 318.704 196.104 317.778C194.142 317.015 192.152 316.225 190.189 315.381C188.226 314.537 186.4 313.529 184.792 312.33C183.156 311.132 181.875 309.716 180.921 308.027C179.967 306.338 179.476 304.323 179.476 301.926C179.476 298.957 180.239 296.369 181.738 294.163C183.238 291.957 185.309 290.241 187.872 288.988C190.461 287.735 193.406 287.081 196.704 287.027C199.621 287.027 202.565 287.408 205.563 288.171C208.562 288.933 211.151 289.887 213.359 291.058L211.697 294.354L211.724 294.435Z" />
    <path class="fg"
      d="M85.8945 84.6265C85.8945 102.767 71.1744 117.502 52.9923 117.502C34.8103 117.502 20.0902 102.794 20.0902 84.6265C20.0902 66.4591 34.8103 51.751 52.9923 51.751C71.1744 51.751 85.8945 66.4591 85.8945 84.6265ZM106.012 84.6265C106.012 55.3735 82.269 31.677 53.0196 31.677C40.5893 31.677 29.1403 35.9805 20.1175 43.144V10.0506C20.1175 4.49416 15.6197 0 10.0587 0C4.49781 0 0 4.49416 0 10.0506V76.5914C0 77.4086 0.109038 78.2257 0.299854 78.9883C0.109038 80.8405 0 82.7198 0 84.6265C0 113.852 23.743 137.576 53.0196 137.576C82.2962 137.576 106.012 113.852 106.012 84.5992" />
    <path class="fg"
      d="M197.385 84.6262C197.385 102.766 182.665 117.502 164.483 117.502C146.301 117.502 131.581 102.793 131.581 84.6262C131.581 66.4589 146.301 51.7507 164.483 51.7507C182.665 51.7507 197.385 66.4589 197.385 84.6262ZM217.503 84.6262C217.503 55.3733 193.76 31.6768 164.51 31.6768C135.261 31.6768 111.518 55.4005 111.518 84.6262C111.518 113.852 135.261 137.603 164.51 137.603C193.76 137.603 217.503 113.879 217.503 84.6262Z" />
    <path class="fg"
      d="M197.385 216.399C197.385 234.539 182.665 249.275 164.483 249.275C146.301 249.275 131.581 234.566 131.581 216.399C131.581 198.232 146.301 183.551 164.483 183.551C182.665 183.551 197.385 198.259 197.385 216.399ZM217.503 216.399C217.503 187.146 193.76 163.45 164.51 163.45C135.261 163.45 111.518 187.173 111.518 216.399C111.518 245.625 135.261 269.376 164.51 269.376C193.76 269.376 217.503 245.652 217.503 216.399Z" />
    <path class="fg"
      d="M106.012 216.399C106.012 187.146 82.269 163.45 53.0196 163.45C23.7702 163.45 0 187.173 0 216.399C0 233.232 7.85072 248.24 20.0902 257.936V215.882H20.1175C20.3901 197.987 35.0284 183.551 52.9923 183.551C70.9563 183.551 85.8945 198.259 85.8945 216.426C85.8945 217.107 85.8945 217.788 85.84 218.442V258.018C98.134 248.321 106.012 233.286 106.012 216.426" />
    <path class="fg"
      d="M10.0587 131.8C4.49781 131.8 0 136.294 0 141.85V259.053C0 264.609 4.49781 269.103 10.0587 269.103C15.6197 269.103 20.1175 264.609 20.1175 259.053V141.85C20.1175 136.294 15.6197 131.8 10.0587 131.8Z" />
    <path class="fg"
      d="M85.9757 215.882V259.189C85.9757 264.664 90.419 269.076 95.8709 269.076C101.323 269.076 105.766 264.637 105.766 259.189V215.882H85.9485H85.9757Z" />
    <path class="fg"
      d="M236.884 131.8C231.323 131.8 226.825 136.294 226.825 141.85V259.053C226.825 264.609 231.323 269.103 236.884 269.103C242.445 269.103 246.943 264.609 246.943 259.053V141.85C246.943 136.294 242.445 131.8 236.884 131.8Z" />
    <path class="fg"
      d="M256.129 259.053C256.129 264.609 260.627 269.104 266.188 269.104H336.245C341.806 269.104 346.303 264.609 346.303 259.053C346.303 253.497 341.806 249.002 336.245 249.002H266.188C260.627 249.002 256.129 253.497 256.129 259.053Z" />
    <path class="fg"
      d="M256.129 173.5C256.129 179.057 260.627 183.551 266.188 183.551H336.245C341.806 183.551 346.303 179.057 346.303 173.5C346.303 167.944 341.806 163.45 336.245 163.45H266.188C260.627 163.45 256.129 167.944 256.129 173.5Z" />
    <path class="fg"
      d="M343.469 166.938C340.17 162.988 334.773 162.961 331.42 166.856L258.828 251.591C255.475 255.486 255.448 261.86 258.773 265.782C262.072 269.731 267.469 269.759 270.822 265.864L343.414 181.128C346.767 177.233 346.794 170.86 343.469 166.938Z" />
  </svg>
</svg>
